<svg id="Layer_3" enable-background="new 0 0 64 64" height="512" viewBox="0 0 64 64" width="512" xmlns="http://www.w3.org/2000/svg"><g><g><path d="m41 24h-18c-1.105 0-2-.895-2-2v-18c0-1.105.895-2 2-2h18c1.105 0 2 .895 2 2v18c0 1.105-.895 2-2 2z" fill="#2b74ca"/></g><g><path d="m21 4v15.542c1.123.288 2.291.458 3.5.458 8.008 0 14.5-6.716 14.5-15 0-1.028-.101-2.031-.291-3h-15.709c-1.105 0-2 .895-2 2z" fill="#3d98f7"/></g><g><path d="m41 25h-18c-1.654 0-3-1.346-3-3v-18c0-1.654 1.346-3 3-3h18c1.654 0 3 1.346 3 3v18c0 1.654-1.346 3-3 3zm-18-22c-.552 0-1 .448-1 1v18c0 .552.448 1 1 1h18c.552 0 1-.448 1-1v-18c0-.552-.448-1-1-1z"/></g><g><path d="m38 5h2v2h-2z"/></g><g><path d="m24 5h12v2h-12z"/></g><g><path d="m38 9h2v4h-2z"/></g><g><path d="m34 9h2v4h-2z"/></g><g><path d="m39 21h-4v-2h3v-2h-3v-2h4c.553 0 1 .447 1 1v4c0 .553-.447 1-1 1z"/></g><g><path d="m29 17h4v2h-4z"/></g><g><path d="m31 24h2v39h-2z"/></g><g><path d="m42 63h-2v-31.586l-2.707-2.707c-.188-.187-.293-.441-.293-.707v-4h2v3.586l2.707 2.707c.188.187.293.441.293.707z"/></g><g><path d="m24 63h-2v-32c0-.266.105-.52.293-.707l2.707-2.707v-3.586h2v4c0 .266-.105.52-.293.707l-2.707 2.707z"/></g></g></svg>